<?xml version="1.0" encoding="UTF-8"?>
<svg xmlns="http://www.w3.org/2000/svg" xmlns:xlink="http://www.w3.org/1999/xlink" viewBox="0 0 512 512" width="512px" height="512px">
<defs>
<linearGradient id="linear0" gradientUnits="userSpaceOnUse" x1="86" y1="24.1875" x2="86" y2="147.8125" gradientTransform="matrix(2.976744,0,0,2.976744,0,0)">
<stop offset="0" style="stop-color:rgb(87.843138%,56.470591%,94.117647%);stop-opacity:1;"/>
<stop offset="1" style="stop-color:rgb(1.960784%,74.117649%,96.078432%);stop-opacity:1;"/>
</linearGradient>
<linearGradient id="linear1" gradientUnits="userSpaceOnUse" x1="97.489059" y1="35.474998" x2="97.489059" y2="137.600006" gradientTransform="matrix(2.976744,0,0,2.976744,0,0)">
<stop offset="0" style="stop-color:rgb(98.823529%,95.294118%,99.215686%);stop-opacity:1;"/>
<stop offset="1" style="stop-color:rgb(43.137255%,85.490197%,98.823529%);stop-opacity:1;"/>
</linearGradient>
</defs>
<g id="surface7490257">
<path style=" stroke:none;fill-rule:nonzero;fill:url(#linear0);" d="M 439.601562 429.496094 L 323.601562 77.496094 L 323.550781 77.511719 C 323.296875 76.742188 322.96875 75.992188 322.480469 75.320312 C 320.976562 73.230469 318.566406 72 316 72 L 196 72 C 192.542969 72 189.488281 74.214844 188.398438 77.496094 L 72.398438 429.496094 C 71.59375 431.945312 72.015625 434.617188 73.519531 436.6875 C 75.023438 438.761719 77.433594 440 80 440 L 165.28125 440 C 189.519531 440 210.902344 424.542969 218.472656 401.535156 L 255.984375 287.679688 L 293.519531 401.535156 C 301.097656 424.542969 322.480469 440 346.71875 440 L 432 440 C 434.566406 440 436.976562 438.769531 438.480469 436.6875 C 439.984375 434.609375 440.398438 431.9375 439.601562 429.496094 Z M 203.28125 396.535156 C 197.871094 412.960938 182.601562 424 165.28125 424 L 91.054688 424 L 201.785156 88 L 304.945312 88 Z M 346.71875 424 C 329.398438 424 314.128906 412.960938 308.71875 396.527344 L 264.417969 262.121094 L 316 105.558594 L 420.945312 424 Z M 346.71875 424 "/>
<path style=" stroke:none;fill-rule:nonzero;fill:url(#linear1);" d="M 316 105.601562 L 316 409.601562 C 312.878906 405.839844 310.320312 401.441406 308.71875 396.558594 L 264.398438 262.160156 Z M 316 105.601562 "/>
</g>
</svg>
